<svg width="216" height="72" viewBox="0 0 216 72" fill="none" xmlns="http://www.w3.org/2000/svg">
<path d="M197.986 0.00017889H18.023C17.367 0.00017889 16.7189 0.000178889 16.0645 0.00375668C15.517 0.00733447 14.9737 0.0177101 14.4207 0.0264757C13.2195 0.0406055 12.0211 0.146278 10.8359 0.342574C9.65245 0.543143 8.50602 0.921286 7.43544 1.46421C6.3662 2.01175 5.38922 2.72321 4.53993 3.57278C3.68617 4.4199 2.97449 5.39905 2.43225 6.47258C1.8885 7.54409 1.51148 8.6923 1.31419 9.87757C1.11502 11.0613 1.00784 12.2587 0.993622 13.4589C0.976985 14.0074 0.975196 14.5577 0.966431 15.1063V56.4552C0.975196 57.0107 0.976985 57.5488 0.993622 58.1046C1.00785 59.3048 1.11503 60.502 1.31419 61.6856C1.51095 62.8715 1.888 64.0203 2.43225 65.0922C2.97423 66.1623 3.68601 67.1376 4.53993 67.98C5.386 68.8333 6.36362 69.5452 7.43544 70.0886C8.50601 70.633 9.65231 71.0134 10.8359 71.217C12.0213 71.4118 13.2196 71.5175 14.4207 71.5333C14.9735 71.5455 15.517 71.5524 16.0647 71.5524C16.7189 71.556 17.367 71.556 18.023 71.556H197.986C198.629 71.556 199.282 71.556 199.925 71.5524C200.47 71.5524 201.029 71.5455 201.574 71.5333C202.773 71.5183 203.969 71.4126 205.152 71.217C206.34 71.0119 207.49 70.6316 208.566 70.0886C209.637 69.5449 210.613 68.833 211.459 67.98C212.311 67.1343 213.024 66.1597 213.573 65.0922C214.113 64.0195 214.486 62.8708 214.68 61.6856C214.879 60.5018 214.991 59.3047 215.012 58.1044C215.019 57.5488 215.019 57.0107 215.019 56.4552C215.034 55.8053 215.034 55.159 215.034 54.4985V17.0594C215.034 16.4042 215.034 15.7544 215.019 15.1063C215.019 14.5577 215.019 14.0074 215.012 13.4588C214.991 12.2584 214.88 11.0613 214.68 9.87739C214.486 8.69293 214.112 7.54493 213.573 6.47276C212.468 4.32079 210.717 2.56909 208.566 1.46403C207.49 0.922439 206.34 0.544397 205.152 0.342395C203.97 0.145264 202.773 0.039585 201.574 0.0262968C201.029 0.0175312 200.47 0.00697669 199.925 0.00357779C199.282 0 198.629 0.00017889 197.986 0.00017889Z" fill="#A6A6A6"/>
<path d="M16.0734 69.9909C15.5283 69.9909 14.9964 69.9839 14.4557 69.9717C13.3355 69.9572 12.2179 69.8597 11.112 69.6801C10.0809 69.5025 9.08204 69.1721 8.14837 68.6998C7.22323 68.2315 6.37943 67.6175 5.64929 66.8812C4.90852 66.1537 4.29179 65.3098 3.82354 64.383C3.35018 63.4503 3.02258 62.4505 2.85217 61.4185C2.66819 60.3096 2.56868 59.1883 2.5545 58.0643C2.54305 57.687 2.5282 56.431 2.5282 56.431V15.1063C2.5282 15.1063 2.54394 13.8695 2.5545 13.506C2.56813 12.3838 2.6671 11.2643 2.85056 10.1571C3.02131 9.12229 3.34918 8.11962 3.82282 7.18381C4.28927 6.2577 4.9025 5.41316 5.63873 4.68294C6.37418 3.94578 7.22072 3.32856 8.14748 2.85379C9.07903 2.38313 10.076 2.05514 11.1051 1.88081C12.2145 1.69945 13.336 1.60145 14.4601 1.58761L16.0743 1.56543H199.917L201.55 1.58815C202.664 1.60138 203.775 1.69862 204.875 1.87902C205.914 2.05559 206.922 2.38592 207.864 2.85916C209.72 3.81592 211.231 5.32963 212.184 7.18811C212.65 8.1175 212.973 9.11205 213.141 10.138C213.327 11.2542 213.431 12.3825 213.452 13.5138C213.458 14.0204 213.458 14.5646 213.458 15.1063C213.472 15.7771 213.472 16.4156 213.472 17.0594V54.4985C213.472 55.1484 213.472 55.7826 213.458 56.4219C213.458 57.0037 213.458 57.5366 213.45 58.0851C213.43 59.1963 213.327 60.3045 213.145 61.4008C212.978 62.4402 212.652 63.4478 212.179 64.3882C211.707 65.3049 211.094 66.1414 210.362 66.8671C209.631 67.6073 208.786 68.225 207.859 68.6963C206.919 69.1721 205.913 69.5036 204.875 69.6798C203.769 69.8604 202.651 69.9579 201.531 69.9716C200.996 69.9841 200.461 69.9904 199.926 69.9907L197.986 69.9943L16.0734 69.9909Z" fill="#1A4962"/>
<path d="M45.2754 36.3159C45.2947 34.8228 45.6913 33.3588 46.4283 32.0602C47.1654 30.7615 48.2189 29.6704 49.491 28.8884C48.6829 27.7343 47.6168 26.7845 46.3774 26.1144C45.138 25.4444 43.7595 25.0726 42.3513 25.0285C39.3472 24.7131 36.4351 26.826 34.9041 26.826C33.3439 26.826 30.987 25.0598 28.4491 25.112C26.8074 25.165 25.2075 25.6424 23.8052 26.4975C22.4029 27.3527 21.2461 28.5566 20.4473 29.9918C16.9876 35.9819 19.5683 44.785 22.8826 49.6269C24.5407 51.9979 26.4784 54.6462 29.0142 54.5522C31.4954 54.4494 32.422 52.97 35.4174 52.97C38.3848 52.97 39.2542 54.5522 41.8413 54.4925C44.5039 54.4494 46.1813 52.1111 47.7813 49.7177C48.9727 48.0284 49.8894 46.1613 50.4976 44.1856C48.9507 43.5313 47.6306 42.4362 46.702 41.0367C45.7733 39.6373 45.2772 37.9954 45.2754 36.3159ZM40.3889 21.8441C41.8406 20.1013 42.5558 17.8613 42.3826 15.5997C40.1647 15.8327 38.1159 16.8927 36.6445 18.5686C35.9252 19.3873 35.3742 20.3398 35.0231 21.3716C34.6721 22.4034 34.5278 23.4942 34.5986 24.5818C35.708 24.5932 36.8055 24.3528 37.8084 23.8786C38.8114 23.4043 39.6937 22.7087 40.3889 21.8441ZM76.6409 48.5501H68.1733L66.1399 54.5544H62.5531L70.5736 32.3399H74.2999L82.3202 54.5544H78.6725L76.6409 48.5501ZM69.0502 45.7793H75.7621L72.4534 36.0348H72.3607L69.0502 45.7793ZM99.6414 46.4573C99.6414 51.4902 96.9475 54.7238 92.8824 54.7238C91.8526 54.7777 90.8285 54.5405 89.9272 54.0393C89.0259 53.5382 88.284 52.7934 87.7864 51.8902H87.7095V59.9123H84.385V38.3583H87.603V41.0522H87.6642C88.1847 40.1533 88.9391 39.4123 89.8472 38.9082C90.7553 38.404 91.7831 38.1554 92.8212 38.1888C96.9318 38.1888 99.6414 41.4384 99.6414 46.4573ZM96.2243 46.4573C96.2243 43.1783 94.5298 41.0225 91.9443 41.0225C89.4041 41.0225 87.6957 43.2235 87.6957 46.4571C87.6957 49.7206 89.4041 51.9061 91.9443 51.9061C94.5298 51.9061 96.2243 49.7662 96.2243 46.4573ZM117.467 46.4573C117.467 51.4902 114.774 54.7238 110.708 54.7238C109.679 54.7777 108.655 54.5404 107.753 54.0393C106.852 53.5382 106.11 52.7934 105.613 51.8902H105.536V59.9123H102.211V38.3583H105.429V41.0522H105.49C106.011 40.1533 106.765 39.4123 107.673 38.9082C108.581 38.404 109.609 38.1554 110.647 38.1888C114.758 38.1888 117.467 41.4384 117.467 46.4573ZM114.05 46.4573C114.05 43.1783 112.356 41.0225 109.77 41.0225C107.23 41.0225 105.522 43.2235 105.522 46.4571C105.522 49.7206 107.23 51.9061 109.77 51.9061C112.356 51.9061 114.05 49.7662 114.05 46.4573ZM129.249 48.365C129.495 50.5678 131.635 52.0143 134.56 52.0143C137.362 52.0143 139.378 50.5678 139.378 48.5814C139.378 46.8571 138.162 45.8248 135.283 45.1172L132.404 44.4237C128.325 43.4384 126.431 41.5307 126.431 38.435C126.431 34.6021 129.771 31.9696 134.514 31.9696C139.208 31.9696 142.426 34.6021 142.535 38.435H139.179C138.978 36.2182 137.145 34.8799 134.467 34.8799C131.789 34.8799 129.957 36.2339 129.957 38.2044C129.957 39.7751 131.127 40.6992 133.99 41.4065L136.438 42.0076C140.995 43.0854 142.889 44.9164 142.889 48.1655C142.889 52.3217 139.579 54.9247 134.313 54.9247C129.387 54.9247 126.061 52.3827 125.846 48.3648L129.249 48.365ZM150.064 34.5255V38.3583H153.144V40.991H150.064V49.9197C150.064 51.3068 150.681 51.9532 152.035 51.9532C152.4 51.9468 152.765 51.9211 153.128 51.8762V54.4934C152.52 54.607 151.901 54.6585 151.282 54.6469C148.003 54.6469 146.724 53.4154 146.724 50.2743V40.991H144.369V38.3583H146.724V34.5255H150.064ZM154.928 46.4573C154.928 41.3613 157.929 38.1592 162.609 38.1592C167.305 38.1592 170.292 41.3613 170.292 46.4573C170.292 51.5671 167.321 54.7553 162.609 54.7553C157.899 54.7553 154.928 51.5671 154.928 46.4573ZM166.905 46.4573C166.905 42.9616 165.303 40.8983 162.609 40.8983C159.915 40.8983 158.315 42.9772 158.315 46.4573C158.315 49.9669 159.915 52.0143 162.609 52.0143C165.303 52.0143 166.905 49.9669 166.905 46.4573ZM173.033 38.3583H176.204V41.1149H176.281C176.495 40.254 177 39.4931 177.709 38.9602C178.419 38.4273 179.29 38.155 180.177 38.1888C180.56 38.1875 180.942 38.2291 181.316 38.3128V41.4225C180.832 41.2747 180.328 41.2068 179.822 41.2216C179.339 41.202 178.858 41.2871 178.411 41.4712C177.964 41.6552 177.562 41.9338 177.233 42.2878C176.904 42.6418 176.655 43.0629 176.504 43.522C176.353 43.9812 176.303 44.4676 176.358 44.9478V54.5544H173.033V38.3583ZM196.644 49.7974C196.196 52.7376 193.333 54.7553 189.67 54.7553C184.958 54.7553 182.034 51.5986 182.034 46.534C182.034 41.4539 184.974 38.1592 189.53 38.1592C194.011 38.1592 196.829 41.2373 196.829 46.148V47.287H185.39V47.4879C185.337 48.0839 185.411 48.6844 185.609 49.2494C185.806 49.8144 186.121 50.3311 186.533 50.765C186.945 51.1989 187.444 51.5401 187.999 51.7661C188.553 51.992 189.148 52.0975 189.746 52.0755C190.532 52.1492 191.321 51.9672 191.995 51.5567C192.668 51.1463 193.192 50.5292 193.487 49.7974H196.644ZM185.405 44.9636H193.502C193.532 44.4276 193.451 43.8913 193.264 43.3882C193.077 42.8852 192.787 42.4262 192.414 42.0402C192.041 41.6542 191.593 41.3495 191.096 41.1452C190.6 40.9409 190.067 40.8413 189.53 40.8529C188.988 40.8497 188.452 40.9537 187.951 41.159C187.45 41.3642 186.995 41.6667 186.611 42.0489C186.228 42.431 185.924 42.8854 185.717 43.3856C185.51 43.8859 185.404 44.4222 185.405 44.9636ZM68.6336 15.6189C69.3306 15.5689 70.03 15.6742 70.6813 15.9272C71.3327 16.1802 71.9198 16.5746 72.4003 17.082C72.8808 17.5894 73.2426 18.1971 73.4598 18.8613C73.6769 19.5255 73.744 20.2296 73.6561 20.9228C73.6561 24.3328 71.813 26.293 68.6336 26.293H64.778V15.6187L68.6336 15.6189ZM66.4359 24.7834H68.4484C68.9465 24.8131 69.4448 24.7315 69.9073 24.5443C70.3698 24.3572 70.7847 24.0692 71.1219 23.7015C71.4591 23.3338 71.71 22.8955 71.8565 22.4185C72.0029 21.9416 72.0412 21.438 71.9684 20.9444C72.0359 20.4528 71.9938 19.9523 71.8451 19.4789C71.6964 19.0054 71.4449 18.5707 71.1084 18.2059C70.772 17.8411 70.3591 17.5552 69.8992 17.3687C69.4393 17.1823 68.9439 17.0998 68.4484 17.1273H66.4359V24.7834ZM75.5289 22.2618C75.4782 21.7324 75.5388 21.1983 75.7066 20.6937C75.8745 20.1891 76.146 19.7252 76.5036 19.3316C76.8613 18.9381 77.2973 18.6237 77.7836 18.4085C78.2699 18.1933 78.7958 18.0822 79.3276 18.0822C79.8594 18.0822 80.3853 18.1933 80.8716 18.4085C81.3579 18.6237 81.7939 18.9381 82.1516 19.3316C82.5092 19.7252 82.7807 20.1891 82.9486 20.6937C83.1164 21.1983 83.177 21.7324 83.1263 22.2618C83.1781 22.7918 83.1184 23.3267 82.951 23.8322C82.7836 24.3378 82.5124 24.8027 82.1546 25.1971C81.7968 25.5915 81.3605 25.9067 80.8736 26.1224C80.3867 26.3381 79.8601 26.4495 79.3276 26.4495C78.7951 26.4495 78.2685 26.3381 77.7816 26.1224C77.2947 25.9067 76.8584 25.5915 76.5006 25.1971C76.1428 24.8027 75.8716 24.3378 75.7042 23.8322C75.5368 23.3267 75.4771 22.7918 75.5289 22.2618ZM81.4913 22.2618C81.4913 20.5156 80.7068 19.4945 79.3303 19.4945C77.9484 19.4945 77.1711 20.5156 77.1711 22.2618C77.1711 24.0219 77.9485 25.0351 79.3303 25.0351C80.7068 25.0351 81.4913 24.0149 81.4913 22.2618ZM93.2257 26.2929H91.5763L89.9116 20.3602H89.7858L88.1281 26.2929H86.4946L84.2743 18.2375H85.8866L87.3297 24.3841H87.4485L89.1046 18.2375H90.6297L92.2858 24.3841H92.4116L93.8475 18.2375H95.4373L93.2257 26.2929ZM97.3048 18.2377H98.8352V19.5172H98.9539C99.1555 19.0576 99.4954 18.6723 99.9263 18.415C100.357 18.1578 100.858 18.0413 101.358 18.082C101.75 18.0526 102.143 18.1117 102.509 18.255C102.875 18.3982 103.204 18.622 103.472 18.9098C103.74 19.1975 103.94 19.5418 104.056 19.9171C104.173 20.2925 104.204 20.6892 104.146 21.0781V26.2927H102.556V21.4773C102.556 20.1829 101.994 19.5391 100.818 19.5391C100.552 19.5267 100.286 19.572 100.039 19.6719C99.7923 19.7718 99.5699 19.9239 99.3872 20.1177C99.2045 20.3116 99.0659 20.5427 98.9809 20.7952C98.8958 21.0476 98.8664 21.3155 98.8945 21.5804V26.2929H97.3048V18.2377ZM106.679 15.093H108.269V26.2929H106.679V15.093ZM110.479 22.2618C110.428 21.7323 110.489 21.1982 110.657 20.6935C110.824 20.1888 111.096 19.7248 111.454 19.3312C111.811 18.9377 112.247 18.6232 112.734 18.408C113.22 18.1928 113.746 18.0816 114.278 18.0816C114.81 18.0816 115.336 18.1928 115.822 18.408C116.309 18.6232 116.745 18.9377 117.102 19.3312C117.46 19.7248 117.732 20.1888 117.899 20.6935C118.067 21.1982 118.128 21.7323 118.077 22.2618C118.129 22.7917 118.069 23.3265 117.901 23.8319C117.734 24.3372 117.462 24.802 117.105 25.1962C116.747 25.5904 116.31 25.9055 115.824 26.1211C115.337 26.3367 114.81 26.448 114.278 26.448C113.746 26.448 113.219 26.3367 112.732 26.1211C112.245 25.9055 111.809 25.5904 111.451 25.1962C111.094 24.802 110.822 24.3372 110.655 23.8319C110.487 23.3265 110.427 22.7917 110.479 22.2618ZM116.441 22.2618C116.441 20.5156 115.657 19.4945 114.28 19.4945C112.898 19.4945 112.121 20.5156 112.121 22.2618C112.121 24.0219 112.898 25.0351 114.28 25.0351C115.657 25.0351 116.441 24.0149 116.441 22.2618ZM119.751 24.0149C119.751 22.5648 120.83 21.7289 122.747 21.6101L124.929 21.4843V20.789C124.929 19.9382 124.366 19.4579 123.28 19.4579C122.392 19.4579 121.777 19.7836 121.601 20.3532H120.062C120.224 18.9695 121.526 18.0822 123.353 18.0822C125.373 18.0822 126.512 19.0876 126.512 20.789V26.2929H124.981V25.1609H124.855C124.6 25.5669 124.242 25.8979 123.817 26.1201C123.391 26.3423 122.915 26.4477 122.436 26.4256C122.098 26.4608 121.756 26.4247 121.433 26.3197C121.109 26.2147 120.811 26.0431 120.558 25.816C120.305 25.5888 120.103 25.3112 119.964 25.001C119.825 24.6908 119.752 24.3549 119.751 24.0149ZM124.929 23.3265V22.653L122.962 22.7788C121.852 22.853 121.349 23.2305 121.349 23.9405C121.349 24.6655 121.978 25.0875 122.843 25.0875C123.096 25.1132 123.352 25.0876 123.596 25.0123C123.839 24.937 124.065 24.8135 124.259 24.6492C124.454 24.4849 124.613 24.2832 124.728 24.0559C124.843 23.8287 124.912 23.5806 124.929 23.3265ZM128.601 22.2618C128.601 19.7164 129.909 18.104 131.945 18.104C132.448 18.0808 132.948 18.2014 133.385 18.4516C133.823 18.7019 134.18 19.0715 134.415 19.5172H134.534V15.0928H136.123V26.2927H134.6V25.0199H134.474C134.221 25.4626 133.851 25.8276 133.406 26.0754C132.96 26.3231 132.454 26.4442 131.945 26.4254C129.895 26.4254 128.601 24.8131 128.601 22.2618ZM130.243 22.2618C130.243 23.9702 131.049 24.9984 132.395 24.9984C133.735 24.9984 134.563 23.9555 134.563 22.2686C134.563 20.5899 133.727 19.5321 132.395 19.5321C131.057 19.5321 130.243 20.5672 130.243 22.2618ZM142.701 22.2618C142.65 21.7324 142.711 21.1983 142.878 20.6937C143.046 20.1891 143.318 19.7252 143.675 19.3316C144.033 18.9381 144.469 18.6237 144.955 18.4085C145.442 18.1933 145.968 18.0822 146.499 18.0822C147.031 18.0822 147.557 18.1933 148.043 18.4085C148.53 18.6237 148.966 18.9381 149.323 19.3316C149.681 19.7252 149.953 20.1891 150.12 20.6937C150.288 21.1983 150.349 21.7324 150.298 22.2618C150.35 22.7918 150.29 23.3267 150.123 23.8322C149.955 24.3378 149.684 24.8027 149.326 25.1971C148.969 25.5915 148.532 25.9067 148.045 26.1224C147.559 26.3381 147.032 26.4495 146.499 26.4495C145.967 26.4495 145.44 26.3381 144.953 26.1224C144.467 25.9067 144.03 25.5915 143.672 25.1971C143.315 24.8027 143.043 24.3378 142.876 23.8322C142.709 23.3267 142.649 22.7918 142.701 22.2618ZM148.663 22.2618C148.663 20.5156 147.879 19.4945 146.502 19.4945C145.12 19.4945 144.343 20.5156 144.343 22.2618C144.343 24.0219 145.12 25.0351 146.502 25.0351C147.879 25.0351 148.663 24.0149 148.663 22.2618ZM152.431 18.2377H153.962V19.5172H154.08C154.282 19.0576 154.622 18.6723 155.053 18.415C155.484 18.1578 155.984 18.0413 156.484 18.082C156.876 18.0526 157.27 18.1117 157.636 18.255C158.002 18.3982 158.331 18.622 158.599 18.9098C158.866 19.1975 159.066 19.5418 159.183 19.9171C159.299 20.2925 159.33 20.6892 159.272 21.0781V26.2927H157.683V21.4773C157.683 20.1829 157.12 19.5391 155.944 19.5391C155.678 19.5267 155.413 19.572 155.166 19.6719C154.919 19.7718 154.696 19.9239 154.514 20.1177C154.331 20.3116 154.192 20.5427 154.107 20.7952C154.022 21.0476 153.993 21.3155 154.021 21.5804V26.2929H152.431L152.431 18.2377ZM168.255 16.2321V18.2743H170.001V19.6133H168.255V23.7553C168.255 24.5991 168.603 24.9687 169.394 24.9687C169.597 24.968 169.799 24.9557 170 24.9319V26.2562C169.715 26.3073 169.426 26.3344 169.136 26.3374C167.368 26.3374 166.664 25.7154 166.664 24.1625V19.6133H165.385V18.2741H166.664V16.2323L168.255 16.2321ZM172.172 15.093H173.748V19.5321H173.874C174.085 19.0682 174.434 18.6807 174.874 18.4225C175.313 18.1642 175.822 18.0478 176.33 18.089C176.72 18.0678 177.109 18.1329 177.471 18.2796C177.833 18.4264 178.158 18.6512 178.423 18.9381C178.688 19.2249 178.887 19.5667 179.004 19.9391C179.122 20.3114 179.156 20.7052 179.104 21.0922V26.2929H177.513V21.4843C177.513 20.1976 176.913 19.5461 175.79 19.5461C175.517 19.5237 175.242 19.5612 174.985 19.6561C174.728 19.7511 174.494 19.901 174.301 20.0955C174.108 20.29 173.96 20.5244 173.866 20.7823C173.773 21.0401 173.738 21.3152 173.762 21.5883V26.2929H172.172V15.093ZM188.374 24.1178C188.158 24.854 187.69 25.4908 187.051 25.9169C186.413 26.3429 185.646 26.5311 184.883 26.4483C184.352 26.4623 183.825 26.3607 183.337 26.1505C182.85 25.9402 182.414 25.6264 182.06 25.2308C181.706 24.8352 181.442 24.3673 181.287 23.8596C181.132 23.3519 181.089 22.8165 181.162 22.2906C181.091 21.763 181.135 21.2265 181.289 20.7172C181.444 20.2079 181.706 19.7378 182.059 19.3388C182.411 18.9397 182.845 18.621 183.331 18.4041C183.817 18.1873 184.344 18.0775 184.876 18.082C187.117 18.082 188.47 19.6133 188.47 22.1428V22.6975H182.781V22.7866C182.757 23.0822 182.794 23.3798 182.891 23.6602C182.987 23.9406 183.142 24.1977 183.344 24.4149C183.546 24.6322 183.791 24.8049 184.063 24.9219C184.336 25.0389 184.63 25.0976 184.927 25.0943C185.307 25.14 185.692 25.0715 186.033 24.8976C186.375 24.7237 186.657 24.4523 186.843 24.1178H188.374ZM182.781 21.5219H186.85C186.87 21.2515 186.833 20.98 186.742 20.7247C186.651 20.4694 186.508 20.236 186.321 20.0394C186.134 19.8429 185.908 19.6876 185.658 19.5836C185.408 19.4795 185.138 19.4289 184.867 19.4351C184.592 19.4317 184.319 19.4833 184.065 19.5869C183.81 19.6906 183.579 19.8442 183.384 20.0387C183.19 20.2332 183.036 20.4646 182.933 20.7193C182.829 20.974 182.778 21.2469 182.781 21.5219Z" fill="white"/>
</svg>
