<svg width="239" height="72" viewBox="0 0 239 72" fill="none" xmlns="http://www.w3.org/2000/svg">
<path d="M230.152 71.0945H9.78126C4.93316 71.0945 0.966431 67.1214 0.966431 62.2655V9.29103C0.966431 4.43499 4.93308 0.461914 9.78126 0.461914H230.152C235 0.461914 238.966 4.43499 238.966 9.29103V62.2654C238.966 67.1214 235 71.0945 230.152 71.0945Z" fill="#1A4962"/>
<path d="M230.152 0.461914H9.78126C4.93316 0.461914 0.966431 4.43499 0.966431 9.29103V62.2654C0.966431 67.1214 4.93308 71.0945 9.78126 71.0945H230.152C235 71.0945 238.966 67.1214 238.966 62.2655V9.29103C238.967 4.43499 235 0.461914 230.152 0.461914ZM230.152 1.87452C234.235 1.87452 237.556 5.20208 237.556 9.29103V62.2654C237.556 66.3551 234.235 69.6826 230.152 69.6826H9.78126C5.69898 69.6826 2.37682 66.355 2.37682 62.2655V9.29103C2.37682 5.20208 5.6989 1.8746 9.78126 1.8746H230.152" fill="#A6A6A6"/>
<path d="M84.5635 18.5496C84.5635 20.029 84.126 21.2071 83.2501 22.0859C82.255 23.1309 80.9581 23.6538 79.3639 23.6538C77.8372 23.6538 76.5391 23.1241 75.4716 22.0632C74.4022 21.003 73.8685 19.6883 73.8685 18.1198C73.8685 16.5505 74.4022 15.2366 75.4716 14.1756C76.5391 13.1155 77.8372 12.585 79.3639 12.585C80.1215 12.585 80.8467 12.7334 81.5353 13.0293C82.2239 13.3259 82.7763 13.7197 83.1895 14.2129L82.2597 15.1447C81.5595 14.3067 80.5953 13.888 79.3639 13.888C78.2505 13.888 77.2877 14.2799 76.4751 15.0641C75.6624 15.8491 75.2561 16.8671 75.2561 18.1198C75.2561 19.3725 75.6624 20.3904 76.4751 21.1755C77.2877 21.9598 78.2504 22.3516 79.3639 22.3516C80.5451 22.3516 81.5299 21.9576 82.3183 21.1686C82.8301 20.6546 83.126 19.9401 83.2052 19.0226H79.3638V17.75H84.4897C84.5392 18.0268 84.5633 18.2923 84.5633 18.5496" fill="white"/>
<path d="M84.5634 18.5499H84.387C84.3856 19.9956 83.9641 21.1184 83.1252 21.9614L83.1234 21.9628L83.1226 21.9643C82.1592 22.9732 80.9208 23.4754 79.3637 23.4776C77.8778 23.4754 76.634 22.9678 75.5954 21.9386C74.5591 20.9074 74.0467 19.6485 74.0447 18.1201C74.0467 16.5909 74.5591 15.3327 75.5954 14.3022C76.634 13.2724 77.8778 12.764 79.3637 12.7618C80.0986 12.7618 80.7983 12.9055 81.4656 13.1917C82.1335 13.4801 82.6612 13.858 83.0544 14.3271L83.1894 14.2132L83.0647 14.0883L82.135 15.0208L82.2596 15.145L82.3954 15.032C81.6625 14.1525 80.6338 13.7091 79.3638 13.7117C78.209 13.7103 77.1932 14.1236 76.353 14.9376C75.5046 15.7542 75.0784 16.8295 75.0798 18.1201C75.0784 19.4107 75.5046 20.4859 76.353 21.3026C77.1932 22.1166 78.209 22.5299 79.3637 22.5284C80.584 22.5306 81.624 22.1159 82.4428 21.2938C82.9896 20.7446 83.2996 19.9839 83.3808 19.0381L83.3973 18.8464H79.5401V17.9269H84.4896V17.7503L84.3159 17.7814C84.3642 18.0491 84.387 18.3036 84.387 18.5499H84.7396C84.7396 18.2815 84.7147 18.0056 84.6631 17.7187L84.637 17.5738H79.1875V19.1995H83.2051V19.0229L83.0296 19.0078C82.9518 19.8963 82.6694 20.5654 82.1935 21.0442C81.436 21.8001 80.5063 22.1731 79.3638 22.1753C78.2916 22.1739 77.3819 21.8041 76.5975 21.0488C75.8208 20.2963 75.4344 19.3355 75.4324 18.1201C75.4344 16.9047 75.8208 15.9439 76.5975 15.1913C77.3819 14.436 78.2916 14.0663 79.3638 14.0649C80.5559 14.0677 81.4561 14.4622 82.1248 15.2589L82.2488 15.4065L83.3141 14.3381L83.4284 14.2237L83.3243 14.1C82.8912 13.5828 82.3141 13.1723 81.6048 12.8676C80.8941 12.5619 80.1441 12.4087 79.3638 12.4087C77.7965 12.4073 76.444 12.9591 75.3469 14.0511C74.2458 15.141 73.6908 16.5109 73.6923 18.1201C73.6908 19.7285 74.2458 21.0992 75.3476 22.1897C76.444 23.281 77.7965 23.8322 79.3638 23.8307C80.996 23.8322 82.35 23.2892 83.3774 22.2083L83.2499 22.0862L83.3746 22.2112C84.2878 21.2972 84.7408 20.0625 84.7396 18.5499H84.5634ZM92.6894 14.1242H87.8722V17.4835H92.2164V18.7566H87.8722V22.1159H92.6894V23.4175H86.5142V12.8226H92.6894V14.1242Z" fill="white"/>
<path d="M92.6894 14.1242V13.9476H87.696V17.66H92.0401V18.5795L87.6959 18.58V22.2924H92.5131V23.2409H86.6906V12.9991H92.5131V14.1242H92.6894H92.8657V12.646H86.338V23.594H92.8657V21.9393H88.0485V18.9331H92.3927V17.3069H88.0485V14.3007H92.8657V14.1242H92.6894ZM98.4211 23.4175H97.0611V14.1241H94.1066V12.8225H101.376V14.1241H98.4211V23.4174" fill="white"/>
<path d="M98.421 23.4175V23.2409H97.2372V13.9476H94.2829V12.9992H101.199V13.9476H98.2448V23.4174H98.421H98.5974V14.3007H101.552V12.646H93.9303V14.3007H96.8846V23.5939H98.5974V23.4174H98.421M106.635 23.4175V12.8225H107.993V23.4174H106.635" fill="white"/>
<path d="M106.635 23.4175H106.811V12.9991H107.817V23.2409H106.635V23.4174V23.594H108.17V12.646H106.458V23.594H106.635V23.4174M114.023 23.4175H112.663V14.1241H109.708V12.8225H116.977V14.1241H114.023V23.4174" fill="white"/>
<path d="M114.023 23.4173V23.2406H112.839V13.9473H109.885V12.999H116.801V13.9473H113.846V23.4172H114.023H114.199V14.3005H117.153V12.6457H109.532V14.3004H112.486V23.5937H114.199V23.4171H114.023M123.985 21.1611C124.768 21.9549 125.726 22.3515 126.859 22.3515C127.991 22.3515 128.95 21.9549 129.732 21.1611C130.515 20.3672 130.908 19.3523 130.908 18.1198C130.908 16.8873 130.515 15.8724 129.732 15.0785C128.95 14.2846 127.991 13.888 126.859 13.888C125.726 13.888 124.768 14.2846 123.985 15.0785C123.203 15.8724 122.811 16.8872 122.811 18.1198C122.811 19.3523 123.203 20.3672 123.985 21.1611ZM130.737 22.048C129.697 23.1191 128.404 23.6538 126.859 23.6538C125.312 23.6538 124.019 23.1191 122.981 22.048C121.941 20.9781 121.423 19.6684 121.423 18.1198C121.423 16.5711 121.941 15.2612 122.981 14.1915C124.019 13.1202 125.312 12.585 126.859 12.585C128.396 12.585 129.685 13.123 130.73 14.1984C131.773 15.2738 132.296 16.5808 132.296 18.1198C132.296 19.6684 131.775 20.9781 130.737 22.048Z" fill="white"/>
<path d="M123.985 21.1614L123.86 21.2855C124.672 22.1112 125.685 22.5306 126.859 22.5284C128.032 22.5306 129.046 22.1112 129.857 21.2855C130.674 20.459 131.086 19.3899 131.084 18.1201C131.085 16.8503 130.674 15.7811 129.857 14.9546C129.046 14.129 128.032 13.7096 126.859 13.7117C125.685 13.7096 124.672 14.129 123.86 14.9546C123.044 15.7811 122.632 16.8503 122.634 18.1201C122.632 19.3898 123.044 20.459 123.86 21.2855L123.985 21.1614L124.11 21.0372C123.362 20.2749 122.988 19.3161 122.987 18.1201C122.988 16.9241 123.362 15.9653 124.11 15.203C124.865 14.4409 125.766 14.067 126.859 14.0649C127.95 14.067 128.854 14.4409 129.606 15.203C130.356 15.9653 130.73 16.9241 130.731 18.1201C130.73 19.316 130.356 20.2749 129.606 21.0372C128.854 21.7994 127.95 22.1731 126.859 22.1752C125.766 22.1731 124.865 21.7994 124.11 21.0372L123.985 21.1614ZM130.737 22.0483L130.611 21.9256C129.6 22.963 128.364 23.4755 126.859 23.4776C125.353 23.4754 124.116 22.963 123.107 21.9256C122.099 20.8847 121.601 19.6293 121.599 18.1201C121.601 16.6108 122.099 15.3555 123.107 14.3146C124.116 13.2771 125.353 12.764 126.859 12.7619C128.354 12.764 129.588 13.2793 130.604 14.3221C131.617 15.3679 132.117 16.6212 132.119 18.1201C132.117 19.6293 131.618 20.8847 130.611 21.9256L130.737 22.0483L130.864 22.171C131.933 21.0716 132.473 19.7079 132.472 18.1201C132.473 16.5413 131.931 15.1803 130.857 14.076C129.783 12.9674 128.437 12.4068 126.859 12.4087C125.272 12.4068 123.922 12.9648 122.855 14.0691V14.0684C121.784 15.1685 121.245 16.5322 121.247 18.1201C121.245 19.7079 121.784 21.0716 122.855 22.1717L122.86 22.1767L122.855 22.171C123.922 23.2754 125.272 23.8322 126.859 23.8307C128.445 23.8322 129.794 23.2754 130.864 22.171L130.737 22.0483ZM134.203 23.4176V12.8226H135.857L140.998 21.0646H141.057L140.998 19.0229V12.8226H142.358V23.4174H140.94L135.561 14.7759H135.503L135.561 16.8184V23.4174H134.203" fill="white"/>
<path d="M134.203 23.4175H134.379V12.9991H135.759L140.9 21.2412H141.238L141.174 19.0203V12.9992H142.182V23.2409H141.037L135.659 14.5994H135.321L135.385 16.8213V23.2409H134.203V23.4174V23.594H135.737V16.8156L135.679 14.7712L135.503 14.7759V14.9525H135.561V14.7759L135.412 14.8698L140.842 23.594H142.534V12.646H140.822V19.0249L140.88 21.0694L141.057 21.0647V20.8881H140.998V21.0647L141.148 20.9709L135.955 12.646H134.027V23.594H134.203V23.4174M189.491 53.4363H192.78V31.3615H189.491L189.491 53.4363ZM219.121 39.3134L215.35 48.8839H215.237L211.323 39.3133H207.78L213.648 52.6899L210.302 60.1305H213.735L222.779 39.3133L219.121 39.3134ZM200.465 50.9291C199.386 50.9291 197.884 50.3896 197.884 49.0543C197.884 47.3504 199.756 46.6973 201.371 46.6973C202.819 46.6973 203.497 47.0096 204.377 47.4361C204.121 49.4805 202.364 50.9291 200.465 50.9291ZM200.862 38.8304C198.48 38.8304 196.014 39.8815 194.993 42.2104L197.912 43.4312C198.536 42.2104 199.698 41.8123 200.918 41.8123C202.619 41.8123 204.349 42.8352 204.377 44.6528V44.8798C203.781 44.5389 202.507 44.0279 200.946 44.0279C197.8 44.0279 194.594 45.7598 194.594 48.9976C194.594 51.9513 197.175 53.8543 200.067 53.8543C202.279 53.8543 203.497 52.8603 204.264 51.6961H204.377V53.3998H207.552V44.9362C207.552 41.0177 204.633 38.8304 200.862 38.8304ZM180.531 42.0005H175.852V34.4339H180.531C182.991 34.4339 184.387 36.4734 184.387 38.2171C184.387 39.9278 182.991 42.0005 180.531 42.0005ZM180.447 31.3615H172.564V53.4363H175.852V45.0729H180.447C184.092 45.0729 187.677 42.4289 187.677 38.2171C187.677 34.0055 184.092 31.3615 180.447 31.3615ZM137.464 50.9331C135.191 50.9331 133.288 49.0273 133.288 46.4096C133.288 43.7645 135.191 41.8296 137.464 41.8296C139.708 41.8296 141.468 43.7644 141.468 46.4096C141.468 49.0273 139.707 50.9331 137.464 50.9331ZM141.241 40.5494H141.127C140.389 39.6677 138.968 38.8712 137.179 38.8712C133.43 38.8712 129.994 42.171 129.994 46.4096C129.994 50.62 133.43 53.8916 137.179 53.8916C138.968 53.8916 140.389 53.0948 141.127 52.185H141.241V53.2659C141.241 56.1396 139.708 57.6757 137.237 57.6757C135.22 57.6757 133.97 56.2244 133.459 55.0014L130.59 56.1961C131.414 58.1874 133.601 60.6342 137.237 60.6342C141.099 60.6342 144.366 58.3578 144.366 52.8107V39.3264H141.241V40.5494ZM146.637 53.4363H149.932V31.3607H146.637V53.4363ZM154.789 46.1538C154.704 43.2518 157.033 41.7729 158.708 41.7729C160.016 41.7729 161.123 42.4268 161.491 43.3665L154.789 46.1538ZM165.014 43.6505C164.39 41.9716 162.486 38.8712 158.595 38.8712C154.732 38.8712 151.523 41.9151 151.523 46.3814C151.523 50.5918 154.704 53.8916 158.964 53.8916C162.401 53.8916 164.39 51.7863 165.213 50.5633L162.657 48.8561C161.805 50.1081 160.64 50.9331 158.964 50.9331C157.288 50.9331 156.096 50.1648 155.328 48.6575L165.354 44.5038L165.014 43.6505ZM85.137 41.1756V44.3616H92.7485C92.5213 46.1537 91.9249 47.4622 91.0159 48.3727C89.9086 49.4825 88.176 50.7055 85.1369 50.7055C80.4504 50.7055 76.7869 46.922 76.7869 42.2281C76.7869 37.5343 80.4504 33.7503 85.137 33.7503C87.6649 33.7503 89.5105 34.7462 90.874 36.0264L93.1177 33.7792C91.215 31.9582 88.6869 30.5643 85.137 30.5643C78.7179 30.5643 73.3215 35.7989 73.3215 42.2281C73.3215 48.6575 78.7179 53.8916 85.137 53.8916C88.6022 53.8916 91.215 52.7542 93.2596 50.62C95.3615 48.5148 96.015 45.5564 96.015 43.167C96.015 42.4268 95.9584 41.7447 95.8441 41.1756H85.137ZM104.669 50.9331C102.396 50.9331 100.436 49.0555 100.436 46.3814C100.436 43.6788 102.396 41.8296 104.669 41.8296C106.94 41.8296 108.9 43.6788 108.9 46.3814C108.9 49.0555 106.94 50.9331 104.669 50.9331ZM104.669 38.8712C100.521 38.8712 97.1415 42.0288 97.1415 46.3814C97.1415 50.7055 100.521 53.8916 104.669 53.8916C108.815 53.8916 112.195 50.7055 112.195 46.3814C112.195 42.0288 108.815 38.8712 104.669 38.8712ZM121.087 50.9331C118.816 50.9331 116.856 49.0555 116.856 46.3814C116.856 43.6788 118.816 41.8296 121.087 41.8296C123.359 41.8296 125.319 43.6788 125.319 46.3814C125.319 49.0555 123.359 50.9331 121.087 50.9331ZM121.087 38.8712C116.94 38.8712 113.561 42.0288 113.561 46.3814C113.561 50.7055 116.94 53.8916 121.087 53.8916C125.234 53.8916 128.614 50.7055 128.614 46.3814C128.614 42.0288 125.234 38.8712 121.087 38.8712Z" fill="white"/>
<path d="M19.4928 13.9018C18.9011 14.4365 18.548 15.3282 18.548 16.512V16.2444V55.3061V55.0488C18.548 56.142 18.8509 56.9863 19.3639 57.53L19.4948 57.6555V57.6561C19.91 58.0314 20.4425 58.2306 21.0527 58.23C21.6489 58.23 22.3197 58.0396 23.0277 57.6376L48.6175 43.0744L57.4074 38.0715C58.5237 37.4363 59.1504 36.6168 59.2552 35.7821V35.7787C59.1504 34.9421 58.5237 34.1232 57.4074 33.4879L48.6167 28.4856L23.0278 13.9225C22.3183 13.5197 21.647 13.3286 21.0492 13.3286C20.4397 13.3286 19.908 13.5273 19.4929 13.9018H19.4928Z" fill="#00C1FF"/>
<path d="M19.4949 57.6558L19.3639 57.5302C18.8509 56.9866 18.548 56.1423 18.548 55.0491V55.3064V16.2543V16.5122C18.548 15.3285 18.9011 14.4367 19.4928 13.9021L41.3355 35.7796L19.4949 57.6558Z" fill="url(#paint0_linear_1188_49)"/>
<path d="M48.6175 43.0747L41.3356 35.7798L48.6168 28.486L57.4075 33.4883C58.5237 34.1236 59.1504 34.9424 59.2552 35.7791V35.7824C59.1504 36.6171 58.5237 37.4367 57.4075 38.0718L48.6176 43.0746" fill="url(#paint1_linear_1188_49)"/>
<path d="M21.0526 58.2305C20.4424 58.231 19.91 58.0317 19.4949 57.6565V57.6559L41.3355 35.7798L48.6174 43.0747L23.0276 57.638C22.3196 58.0401 21.6488 58.2305 21.0526 58.2305Z" fill="url(#paint2_linear_1188_49)"/>
<path d="M41.3354 35.7798L19.4926 13.9022C19.9078 13.5277 20.4395 13.329 21.0489 13.329C21.6467 13.329 22.3181 13.52 23.0275 13.9229L48.6166 28.4861L41.3353 35.7798" fill="url(#paint3_linear_1188_49)"/>
<path d="M21.0533 58.4888C20.4432 58.4888 19.9101 58.2894 19.4949 57.9142L19.4942 57.9148C19.4925 57.9131 19.4906 57.9115 19.4887 57.9101L19.3751 57.799C19.3716 57.7955 19.3682 57.7914 19.364 57.7874L19.495 57.6562C19.9102 58.0314 20.4425 58.2308 21.0528 58.2301C21.6489 58.2301 22.3198 58.0398 23.0277 57.6376L48.6175 43.0744L48.7815 43.2387L48.6155 43.3332L23.0277 57.8956C22.3825 58.2619 21.7688 58.4529 21.2144 58.4847C21.1608 58.4873 21.1071 58.4888 21.0533 58.4888Z" fill="url(#paint4_linear_1188_49)"/>
<path d="M19.3639 57.7876C18.8509 57.244 18.548 56.4004 18.548 55.3065V55.0492C18.548 56.1424 18.8509 56.9866 19.3639 57.5303L19.4948 57.6559L19.3639 57.7876Z" fill="url(#paint5_linear_1188_49)"/>
<path d="M48.7814 43.2387L48.6174 43.0744L57.4073 38.0716C58.5237 37.4364 59.1504 36.6169 59.2552 35.7822C59.2552 36.0885 59.1869 36.3948 59.0514 36.6928C58.7779 37.2936 58.2298 37.8613 57.4074 38.3296L48.7814 43.2388" fill="url(#paint6_linear_1188_49)"/>
<path d="M59.2551 35.7788C59.1504 34.9421 58.5237 34.1234 57.4074 33.488L48.6167 28.4858L48.7807 28.3215H48.7814L57.4074 33.2307C58.6381 33.9315 59.2544 34.8551 59.2551 35.7788Z" fill="url(#paint7_linear_1188_49)"/>
<path d="M18.548 16.5122V16.2424C18.548 16.1451 18.5506 16.0499 18.5556 15.9576V15.9534C18.5556 15.9521 18.5556 15.9507 18.5561 15.9493V15.9389C18.6092 14.9973 18.9011 14.2628 19.3639 13.7724L19.4928 13.902C18.9011 14.4367 18.548 15.3285 18.548 16.5122Z" fill="url(#paint8_linear_1188_49)"/>
<path d="M48.6167 28.4858L23.0276 13.9225C22.3182 13.5197 21.6469 13.3287 21.0491 13.3287C20.4396 13.3287 19.9079 13.5274 19.4928 13.9019L19.3639 13.7723C19.4041 13.7296 19.446 13.6884 19.4893 13.6489C19.4906 13.6474 19.4928 13.646 19.4941 13.6447C19.906 13.2729 20.4321 13.0743 21.0361 13.0707H21.0491C21.6469 13.0707 22.3182 13.2618 23.0276 13.6647L48.7814 28.321L48.7806 28.3216L48.6167 28.4858Z" fill="url(#paint9_linear_1188_49)"/>
<defs>
<linearGradient id="paint0_linear_1188_49" x1="32.5068" y1="15.8416" x2="13.6832" y2="34.6954" gradientUnits="userSpaceOnUse">
<stop stop-color="#00A0FF"/>
<stop offset="0.00657" stop-color="#00A1FF"/>
<stop offset="0.2601" stop-color="#00BEFF"/>
<stop offset="0.5122" stop-color="#00D2FF"/>
<stop offset="0.7604" stop-color="#00DFFF"/>
<stop offset="1" stop-color="#00E3FF"/>
</linearGradient>
<linearGradient id="paint1_linear_1188_49" x1="60.6153" y1="35.6537" x2="17.9569" y2="35.6537" gradientUnits="userSpaceOnUse">
<stop stop-color="#FFE000"/>
<stop offset="0.4087" stop-color="#FFBD00"/>
<stop offset="0.7754" stop-color="#FFA500"/>
<stop offset="1" stop-color="#FF9C00"/>
</linearGradient>
<linearGradient id="paint2_linear_1188_49" x1="44.7514" y1="42.7155" x2="12.8534" y2="74.4315" gradientUnits="userSpaceOnUse">
<stop stop-color="#FF3A44"/>
<stop offset="1" stop-color="#C31162"/>
</linearGradient>
<linearGradient id="paint3_linear_1188_49" x1="13.863" y1="10.6588" x2="28.0793" y2="24.8156" gradientUnits="userSpaceOnUse">
<stop stop-color="#32A071"/>
<stop offset="0.0685" stop-color="#2DA771"/>
<stop offset="0.4762" stop-color="#15CF74"/>
<stop offset="0.8009" stop-color="#06E775"/>
<stop offset="1" stop-color="#00F076"/>
</linearGradient>
<linearGradient id="paint4_linear_1188_49" x1="44.7356" y1="47.7754" x2="19.1901" y2="73.3622" gradientUnits="userSpaceOnUse">
<stop stop-color="#CC2E36"/>
<stop offset="1" stop-color="#9C0E4E"/>
</linearGradient>
<linearGradient id="paint5_linear_1188_49" x1="21.4578" y1="15.8416" x2="4.87444" y2="32.4519" gradientUnits="userSpaceOnUse">
<stop stop-color="#008DE0"/>
<stop offset="0.00657" stop-color="#008DE0"/>
<stop offset="0.2601" stop-color="#00A7E0"/>
<stop offset="0.5122" stop-color="#00B8E0"/>
<stop offset="0.7604" stop-color="#00C4E0"/>
<stop offset="1" stop-color="#00C7E0"/>
</linearGradient>
<linearGradient id="paint6_linear_1188_49" x1="60.6153" y1="35.7806" x2="17.9568" y2="35.7806" gradientUnits="userSpaceOnUse">
<stop stop-color="#E0C500"/>
<stop offset="0.4087" stop-color="#E0A600"/>
<stop offset="0.7754" stop-color="#E09100"/>
<stop offset="1" stop-color="#E08900"/>
</linearGradient>
<linearGradient id="paint7_linear_1188_49" x1="60.6153" y1="35.7805" x2="17.9569" y2="35.7805" gradientUnits="userSpaceOnUse">
<stop stop-color="#FFE840"/>
<stop offset="0.4087" stop-color="#FFCE40"/>
<stop offset="0.7754" stop-color="#FFBC40"/>
<stop offset="1" stop-color="#FFB540"/>
</linearGradient>
<linearGradient id="paint8_linear_1188_49" x1="21.4398" y1="15.8715" x2="5.4671" y2="31.1769" gradientUnits="userSpaceOnUse">
<stop stop-color="#40B8FF"/>
<stop offset="0.00657" stop-color="#40B9FF"/>
<stop offset="0.2601" stop-color="#40CEFF"/>
<stop offset="0.5122" stop-color="#40DDFF"/>
<stop offset="0.7604" stop-color="#40E7FF"/>
<stop offset="1" stop-color="#40EAFF"/>
</linearGradient>
<linearGradient id="paint9_linear_1188_49" x1="13.8313" y1="15.2852" x2="25.2386" y2="26.7109" gradientUnits="userSpaceOnUse">
<stop stop-color="#65B895"/>
<stop offset="0.0685" stop-color="#62BD95"/>
<stop offset="0.4762" stop-color="#50DB97"/>
<stop offset="0.8009" stop-color="#44ED98"/>
<stop offset="1" stop-color="#40F498"/>
</linearGradient>
</defs>
</svg>
